<?xml version="1.0" encoding="utf-8"?>
<!-- Generator: Adobe Illustrator 23.0.3, SVG Export Plug-In . SVG Version: 6.00 Build 0)  -->
<svg version="1.1" id="Layer_1" xmlns="http://www.w3.org/2000/svg" xmlns:xlink="http://www.w3.org/1999/xlink" x="0px" y="0px"
	 viewBox="0 0 140 208.7" style="enable-background:new 0 0 140 208.7;" xml:space="preserve">
<style type="text/css">
	.st0{fill:url(#SVGID_1_);}
	.st1{fill:url(#SVGID_2_);}
	.st2{fill:url(#SVGID_3_);}
	.st3{fill:url(#SVGID_4_);}
	.st4{fill:url(#SVGID_5_);}
	.st5{fill:url(#SVGID_6_);}
	.st6{fill:url(#SVGID_7_);}
	.st7{fill:url(#SVGID_8_);}
	.st8{fill:url(#SVGID_9_);}
	.st9{fill:url(#SVGID_10_);}
	.st10{fill:url(#SVGID_11_);}
	.st11{fill:url(#SVGID_12_);}
</style>
<title>kc_logo</title>
<g>
	<linearGradient id="SVGID_1_" gradientUnits="userSpaceOnUse" x1="-3.4357" y1="24.563" x2="116.3966" y2="222.9061">
		<stop  offset="0" style="stop-color:#E19562"/>
		<stop  offset="0.4114" style="stop-color:#BB6E41"/>
		<stop  offset="0.819" style="stop-color:#A3623A"/>
		<stop  offset="1" style="stop-color:#905631"/>
	</linearGradient>
	<path class="st0" d="M80,77.7l-74.6,0V128L0,146.4h53.4L48,128V91.2c0-2.9,0.8-4.4,3.2-4.9c2.5-0.5,4.1,1.2,4.8,2.4l25.5,42.6h0
		c6,9,16.2,15,27.9,15l30.6,0l-32.2-53.7C101.9,83.6,91.6,77.7,80,77.7z"/>
	<linearGradient id="SVGID_2_" gradientUnits="userSpaceOnUse" x1="48.0116" y1="-6.5185" x2="167.8434" y2="191.8236">
		<stop  offset="0" style="stop-color:#E19562"/>
		<stop  offset="0.4114" style="stop-color:#BB6E41"/>
		<stop  offset="0.819" style="stop-color:#A3623A"/>
		<stop  offset="1" style="stop-color:#905631"/>
	</linearGradient>
	<path class="st1" d="M5.4,68.7l74.6,0c11.6,0,21.9-6,27.9-15L140,0l-30.6,0C97.8,0,87.5,6,81.6,15l0,0L56,57.6
		c-0.8,1.2-2.3,2.9-4.8,2.4c-2.5-0.5-3.2-2-3.2-4.9V18.4L53.4,0H0l5.4,18.4V68.7z"/>
	<linearGradient id="SVGID_3_" gradientUnits="userSpaceOnUse" x1="-37.033" y1="45.0093" x2="82.7183" y2="243.2181">
		<stop  offset="0" style="stop-color:#E19562"/>
		<stop  offset="0.4114" style="stop-color:#BB6E41"/>
		<stop  offset="0.819" style="stop-color:#A3623A"/>
		<stop  offset="1" style="stop-color:#905631"/>
	</linearGradient>
	<path class="st2" d="M60.8,206.8c0,0.6-0.4,1-0.9,1c-0.6,0-0.9-0.4-0.9-1v-3.5h-1v3.5c0,1.1,0.9,1.9,1.9,1.9c1.1,0,2-0.7,2-1.9
		v-3.5h-1V206.8z"/>
	<linearGradient id="SVGID_4_" gradientUnits="userSpaceOnUse" x1="-32.6268" y1="42.2154" x2="87.1956" y2="240.5419">
		<stop  offset="0" style="stop-color:#E19562"/>
		<stop  offset="0.4114" style="stop-color:#BB6E41"/>
		<stop  offset="0.819" style="stop-color:#A3623A"/>
		<stop  offset="1" style="stop-color:#905631"/>
	</linearGradient>
	<path class="st3" d="M67.9,205.9c0.3-0.1,0.6-0.5,0.6-1.1c0-0.9-0.6-1.5-1.6-1.5h-2.1v5.3H67c0.9,0,1.6-0.5,1.6-1.5
		C68.6,206.4,68.2,206.1,67.9,205.9z M65.8,204.3h1c0.4,0,0.7,0.2,0.7,0.6c0,0.4-0.3,0.6-0.7,0.6h-1V204.3z M66.9,207.7h-1.1v-1.3
		h1.1c0.5,0,0.7,0.3,0.7,0.6S67.3,207.7,66.9,207.7z"/>
	<linearGradient id="SVGID_5_" gradientUnits="userSpaceOnUse" x1="-27.2503" y1="38.8908" x2="92.6146" y2="237.2876">
		<stop  offset="0" style="stop-color:#E19562"/>
		<stop  offset="0.4114" style="stop-color:#BB6E41"/>
		<stop  offset="0.819" style="stop-color:#A3623A"/>
		<stop  offset="1" style="stop-color:#905631"/>
	</linearGradient>
	<path class="st4" d="M74.3,206.8c0,0.6-0.4,1-0.9,1c-0.6,0-0.9-0.4-0.9-1v-3.5h-1v3.5c0,1.1,0.9,1.9,2,1.9c1.1,0,2-0.7,2-1.9v-3.5
		h-1V206.8z"/>
	<linearGradient id="SVGID_6_" gradientUnits="userSpaceOnUse" x1="-22.8158" y1="36.2189" x2="97.0435" y2="234.6064">
		<stop  offset="0" style="stop-color:#E19562"/>
		<stop  offset="0.4114" style="stop-color:#BB6E41"/>
		<stop  offset="0.819" style="stop-color:#A3623A"/>
		<stop  offset="1" style="stop-color:#905631"/>
	</linearGradient>
	<path class="st5" d="M80.2,203.4h-1.9v5.3h1.9c0.7,0,1.2-0.2,1.6-0.8c0.3-0.5,0.3-1,0.3-1.9c0-0.9,0-1.4-0.3-1.9
		C81.4,203.6,80.9,203.4,80.2,203.4z M80.8,207.4c-0.2,0.2-0.4,0.3-0.8,0.3h-0.8v-3.5h0.8c0.4,0,0.6,0.1,0.8,0.3
		c0.2,0.2,0.2,0.6,0.2,1.4S81,207.2,80.8,207.4z"/>
	<linearGradient id="SVGID_7_" gradientUnits="userSpaceOnUse" x1="-29.0199" y1="40.0222" x2="90.8107" y2="238.3625">
		<stop  offset="0" style="stop-color:#E19562"/>
		<stop  offset="0.4114" style="stop-color:#BB6E41"/>
		<stop  offset="0.819" style="stop-color:#A3623A"/>
		<stop  offset="1" style="stop-color:#905631"/>
	</linearGradient>
	<path class="st6" d="M65.4,190.9l-2.1-1.8c-1.6,1.4-3.1,2.1-4.6,2.1c-1.6,0-3-0.6-4.2-1.8c-1.2-1.2-1.8-2.6-1.8-4.3
		s0.6-3.1,1.8-4.3c1.2-1.2,2.6-1.8,4.2-1.8c1.5,0,3,0.7,4.6,2.1l2.1-1.8c-2.2-2-4.4-3-6.7-3c-2.4,0-4.5,0.9-6.2,2.6
		c-1.7,1.7-2.6,3.8-2.6,6.2c0,2.4,0.9,4.5,2.6,6.2c1.7,1.7,3.8,2.6,6.2,2.6C61,193.9,63.2,192.9,65.4,190.9z"/>
	<linearGradient id="SVGID_8_" gradientUnits="userSpaceOnUse" x1="-18.9464" y1="33.9402" x2="100.8811" y2="232.2751">
		<stop  offset="0" style="stop-color:#E19562"/>
		<stop  offset="0.4114" style="stop-color:#BB6E41"/>
		<stop  offset="0.819" style="stop-color:#A3623A"/>
		<stop  offset="1" style="stop-color:#905631"/>
	</linearGradient>
	<polygon class="st7" points="71,176.6 71,193.7 79.6,193.7 79.6,191 73.8,191 73.8,176.6 	"/>
	<linearGradient id="SVGID_9_" gradientUnits="userSpaceOnUse" x1="-4.3589" y1="25.102" x2="115.4835" y2="223.4616">
		<stop  offset="0" style="stop-color:#E19562"/>
		<stop  offset="0.4114" style="stop-color:#BB6E41"/>
		<stop  offset="0.819" style="stop-color:#A3623A"/>
		<stop  offset="1" style="stop-color:#905631"/>
	</linearGradient>
	<path class="st8" d="M94.3,187.9c0,0.9-0.3,1.6-0.9,2.3c-0.6,0.6-1.4,0.9-2.2,0.9c-0.9,0-1.6-0.3-2.2-0.9c-0.6-0.6-0.9-1.4-0.9-2.3
		v-11.3h-2.8v11.3c0,1.6,0.6,3,1.7,4.2c1.1,1.1,2.6,1.7,4.2,1.7c1.7,0,3.1-0.6,4.2-1.7c0.9-1,1.5-2.1,1.7-3.5v-11.9h-2.8V187.9z"/>
	<linearGradient id="SVGID_10_" gradientUnits="userSpaceOnUse" x1="6.5935" y1="18.566" x2="126.3924" y2="216.8537">
		<stop  offset="0" style="stop-color:#E19562"/>
		<stop  offset="0.4114" style="stop-color:#BB6E41"/>
		<stop  offset="0.819" style="stop-color:#A3623A"/>
		<stop  offset="1" style="stop-color:#905631"/>
	</linearGradient>
	<path class="st9" d="M112.1,183c0.5-0.7,0.8-1.5,0.8-2.4c0-2.2-1.8-4-4-4h-5.7v17.1h6c3-0.2,5.4-2.8,5.4-5.9
		C114.7,185.8,113.7,184,112.1,183z M106.1,179.3h2.9c0.7,0,1.3,0.6,1.3,1.3c0,0.7-0.6,1.3-1.3,1.3h-2.9V179.3z M108.8,191h-2.7
		v-6.4h2.7c1.8,0,3.2,1.4,3.2,3.2C112,189.6,110.6,191,108.8,191z"/>
	<linearGradient id="SVGID_11_" gradientUnits="userSpaceOnUse" x1="-49.0755" y1="52.1347" x2="70.7578" y2="250.4792">
		<stop  offset="0" style="stop-color:#E19562"/>
		<stop  offset="0.4114" style="stop-color:#BB6E41"/>
		<stop  offset="0.819" style="stop-color:#A3623A"/>
		<stop  offset="1" style="stop-color:#905631"/>
	</linearGradient>
	<polygon class="st10" points="37.3,176.6 33.7,176.6 28.1,183.5 28.1,169.6 25.3,169.6 25.3,193.7 28.1,193.7 28.1,187.9 30,185.6 
		35.7,193.7 39.1,193.7 31.8,183.4 	"/>
	<linearGradient id="SVGID_12_" gradientUnits="userSpaceOnUse" x1="-40.832" y1="47.3032" x2="78.9068" y2="245.4914">
		<stop  offset="0" style="stop-color:#E19562"/>
		<stop  offset="0.4114" style="stop-color:#BB6E41"/>
		<stop  offset="0.819" style="stop-color:#A3623A"/>
		<stop  offset="1" style="stop-color:#905631"/>
	</linearGradient>
	<rect x="40.9" y="183.7" class="st11" width="3.1" height="3.1"/>
</g>
</svg>
