<?xml version="1.0" encoding="utf-8"?>
<!-- Generator: Adobe Illustrator 23.0.3, SVG Export Plug-In . SVG Version: 6.00 Build 0)  -->
<svg version="1.1" id="Layer_1" xmlns="http://www.w3.org/2000/svg" xmlns:xlink="http://www.w3.org/1999/xlink" x="0px" y="0px"
	 viewBox="0 0 140 61.304" style="enable-background:new 0 0 140 61.304;" xml:space="preserve">
<style type="text/css">
	.st0{fill:url(#SVGID_1_);}
</style>
<title>kc_logo</title>
<linearGradient id="SVGID_1_" gradientUnits="userSpaceOnUse" x1="38.5254" y1="-23.24" x2="90.8149" y2="63.4412">
	<stop  offset="0" style="stop-color:#E19562"/>
	<stop  offset="0.4114" style="stop-color:#BB6E41"/>
	<stop  offset="0.819" style="stop-color:#A3623A"/>
	<stop  offset="1" style="stop-color:#905631"/>
</linearGradient>
<path class="st0" d="M55.559,52.909h1.612v5.481c-0.081,1.688-1.515,2.991-3.203,2.91c-1.575-0.075-2.835-1.335-2.91-2.91v-5.481
	h1.619v5.411c-0.051,0.796,0.552,1.483,1.348,1.534c0.796,0.051,1.483-0.552,1.534-1.348c0.004-0.062,0.004-0.124,0-0.186V52.909z
	 M67.829,58.838c0.063,1.269-0.915,2.348-2.184,2.411c-0.121,0.006-0.243,0.002-0.363-0.011h-3.49v-8.329h3.343
	c1.244-0.163,2.384,0.712,2.548,1.956c0.017,0.129,0.023,0.259,0.017,0.389c0.002,0.715-0.389,1.372-1.017,1.713
	C67.417,57.292,67.873,58.037,67.829,58.838z M63.423,56.285h1.593c0.532,0.059,1.012-0.324,1.072-0.856s-0.324-1.012-0.856-1.072
	c-0.072-0.008-0.144-0.008-0.215,0h-1.593L63.423,56.285z M66.2,58.756c0.028-0.537-0.385-0.994-0.922-1.022
	c-0.053-0.003-0.107-0.001-0.159,0.005h-1.696v2.048h1.694c0.54,0.056,1.023-0.336,1.079-0.876
	C66.202,58.859,66.203,58.808,66.2,58.756z M76.681,58.32c0.081,0.764-0.472,1.449-1.236,1.53c-0.072,0.008-0.145,0.01-0.218,0.006
	c-0.759,0.034-1.401-0.553-1.435-1.312c-0.003-0.075-0.001-0.15,0.008-0.224v-5.411h-1.635v5.481
	c0.086,1.692,1.528,2.993,3.22,2.906c1.571-0.08,2.826-1.336,2.906-2.906v-5.481h-1.612L76.681,58.32z M88.43,54.135
	c0.48,0.9,0.664,1.928,0.525,2.939c0.137,1.013-0.046,2.044-0.525,2.947c-0.567,0.815-1.519,1.275-2.51,1.213h-3v-8.325h3
	C86.913,52.852,87.865,53.316,88.43,54.135z M87.324,57.074c0-1.314-0.026-1.838-0.335-2.2c-0.299-0.357-0.75-0.549-1.214-0.518
	h-1.239v5.43h1.239c0.464,0.031,0.915-0.162,1.214-0.519C87.3,58.908,87.324,58.39,87.324,57.074z M62.79,33.44l-3.249-2.864
	c-2.452,2.169-4.836,3.249-7.192,3.249c-5.184-0.026-9.371-4.24-9.363-9.425c-0.044-2.512,0.956-4.929,2.762-6.676
	c1.727-1.788,4.114-2.785,6.6-2.755c2.356,0,4.74,1.087,7.192,3.267l3.249-2.863c-3.4-3.098-6.88-4.647-10.441-4.646
	c-7.573-0.018-13.731,6.1-13.762,13.673c-0.057,3.637,1.396,7.134,4.014,9.659c2.558,2.622,6.085,4.072,9.748,4.007
	C55.907,38.066,59.387,36.524,62.79,33.44z M85.118,33.572h-9.141V11.011H71.6v26.778h13.518V33.572z M108,28.75
	c0.021,1.336-0.507,2.622-1.46,3.558c-0.908,0.942-2.162,1.472-3.47,1.466c-2.752-0.031-4.965-2.272-4.962-5.024V11.011h-4.374
	V28.75c-0.029,2.457,0.957,4.816,2.724,6.523c3.671,3.628,9.578,3.622,13.242-0.013c1.482-1.496,2.421-3.445,2.667-5.537V11.011H108
	V28.75z M140,28.55c0.001,4.803-3.678,8.807-8.465,9.21h-9.393V11.011H131c3.45,0,6.247,2.798,6.246,6.248
	c0,1.335-0.428,2.634-1.22,3.708c2.492,1.718,3.979,4.553,3.974,7.58V28.55z M126.51,19.27H131c1.107,0,2.003-0.897,2.003-2.003
	s-0.897-2.003-2.003-2.003h-4.49V19.27z M135.821,28.55c0.003-2.786-2.252-5.047-5.038-5.05c-0.004,0-0.009,0-0.013,0h-4.26v10.1
	h4.26C133.559,33.601,135.82,31.34,135.821,28.55c0,0,0-0.002,0-0.003V28.55z M18.737,11.011h-5.581L4.382,21.833V0H0v37.789h4.382
	v-9.046l2.983-3.68l8.888,12.726h5.279L10.2,21.568L18.737,11.011z M24.464,26.947h4.9v-4.9h-4.9V26.947z"/>
</svg>
