<?xml version="1.0" encoding="utf-8"?>
<!-- Generator: Adobe Illustrator 23.0.3, SVG Export Plug-In . SVG Version: 6.00 Build 0)  -->
<svg version="1.1" id="Layer_1" xmlns="http://www.w3.org/2000/svg" xmlns:xlink="http://www.w3.org/1999/xlink" x="0px" y="0px"
	 viewBox="0 0 170 177.717" style="enable-background:new 0 0 170 177.717;" xml:space="preserve">
<style type="text/css">
	.st0{fill:url(#SVGID_1_);}
</style>
<title>kc_logo_picto</title>
<linearGradient id="SVGID_1_" gradientUnits="userSpaceOnUse" x1="23.0202" y1="-13.8867" x2="146.9798" y2="191.6036">
	<stop  offset="0" style="stop-color:#E19562"/>
	<stop  offset="0.4114" style="stop-color:#BB6E41"/>
	<stop  offset="0.819" style="stop-color:#A3623A"/>
	<stop  offset="1" style="stop-color:#905631"/>
</linearGradient>
<path class="st0" d="M130.942,112.478L170,177.717l-37.146-0.005c-13.614,0.009-26.321-6.825-33.819-18.188h-0.006l-30.983-51.73
	c-1.123-2.143-3.491-3.329-5.88-2.945c-3.014,0.554-3.93,2.368-3.93,5.905v44.64l6.572,22.323H0l6.571-22.323v-61.1l90.537,0.011
	C110.723,94.293,123.434,101.12,130.942,112.478z M6.571,83.432l90.537-0.011c13.615,0.008,26.325-6.82,33.834-18.178L170,0
	l-37.146,0.008C119.242,0,106.537,6.83,99.035,18.188l-0.006,0.005L68.046,69.926c-1.124,2.143-3.491,3.329-5.88,2.946
	c-3.014-0.554-3.93-2.372-3.93-5.911V22.328L64.808,0H0l6.571,22.328V83.432z"/>
</svg>
